<svg width="20" height="15" viewBox="0 0 20 15" fill="none" xmlns="http://www.w3.org/2000/svg">
<path fill-rule="evenodd" clip-rule="evenodd" d="M3 0.5C1.34315 0.5 0 1.84315 0 3.5V11.5C0 13.1569 1.34315 14.5 3 14.5H17C18.6569 14.5 20 13.1569 20 11.5V3.5C20 1.84315 18.6569 0.5 17 0.5H3ZM3.49607 2.63174C3.01655 2.35773 2.40569 2.52433 2.13168 3.00385C1.85767 3.48337 2.02427 4.09422 2.50379 4.36823L9.50379 8.36823C9.81122 8.54391 10.1886 8.54391 10.4961 8.36823L17.4961 4.36823C17.9756 4.09422 18.1422 3.48337 17.8682 3.00385C17.5942 2.52433 16.9833 2.35773 16.5038 2.63174L10.4961 6.06473C10.1886 6.24041 9.81122 6.2404 9.50379 6.06473L3.49607 2.63174Z" fill="#8DB932"/>
</svg>
